<mxfile host="app.diagrams.net" modified="2023-01-12T03:36:55.929Z" agent="5.0 (Windows NT 10.0; Win64; x64) AppleWebKit/537.36 (KHTML, like Gecko) Chrome/108.0.0.0 Safari/537.36 Edg/108.0.1462.76" version="20.6.0" etag="TgzER-R22eONw7KlkdJU" type="github">
  <diagram id="DbhcTt-udiRZH4p_jUxz" name="第 1 页">
    <mxGraphModel dx="1160" dy="773" grid="1" gridSize="10" guides="1" tooltips="1" connect="1" arrows="1" fold="1" page="1" pageScale="1" pageWidth="827" pageHeight="1169" math="0" shadow="0">
      <root>
        <mxCell id="0" />
        <mxCell id="1" parent="0" />
        <mxCell id="xYO9YziwrIUtsG2uqH6N-5" style="edgeStyle=orthogonalEdgeStyle;rounded=0;orthogonalLoop=1;jettySize=auto;html=1;exitX=1;exitY=0.5;exitDx=0;exitDy=0;entryX=0;entryY=0.5;entryDx=0;entryDy=0;" edge="1" parent="1" source="xYO9YziwrIUtsG2uqH6N-1" target="xYO9YziwrIUtsG2uqH6N-2">
          <mxGeometry relative="1" as="geometry" />
        </mxCell>
        <mxCell id="xYO9YziwrIUtsG2uqH6N-1" value="&lt;font color=&quot;#ff3333&quot;&gt;VM1 get VM2&#39;s guest vmid&lt;/font&gt;" style="rounded=0;whiteSpace=wrap;html=1;" vertex="1" parent="1">
          <mxGeometry x="80" y="240" width="90" height="40" as="geometry" />
        </mxCell>
        <mxCell id="xYO9YziwrIUtsG2uqH6N-6" style="edgeStyle=orthogonalEdgeStyle;rounded=0;orthogonalLoop=1;jettySize=auto;html=1;exitX=1;exitY=0.5;exitDx=0;exitDy=0;entryX=0;entryY=0.5;entryDx=0;entryDy=0;" edge="1" parent="1" source="xYO9YziwrIUtsG2uqH6N-2" target="xYO9YziwrIUtsG2uqH6N-3">
          <mxGeometry relative="1" as="geometry" />
        </mxCell>
        <mxCell id="xYO9YziwrIUtsG2uqH6N-2" value="&lt;font color=&quot;#ff3021&quot;&gt;VM1 register service to VM2&#39;s TEE&lt;/font&gt;" style="rounded=0;whiteSpace=wrap;html=1;" vertex="1" parent="1">
          <mxGeometry x="200" y="240" width="90" height="40" as="geometry" />
        </mxCell>
        <mxCell id="xYO9YziwrIUtsG2uqH6N-3" value="VM2&#39;s TEE INFO message" style="rounded=0;whiteSpace=wrap;html=1;" vertex="1" parent="1">
          <mxGeometry x="324" y="240" width="90" height="40" as="geometry" />
        </mxCell>
        <mxCell id="xYO9YziwrIUtsG2uqH6N-12" style="edgeStyle=orthogonalEdgeStyle;rounded=0;orthogonalLoop=1;jettySize=auto;html=1;exitX=1;exitY=0.5;exitDx=0;exitDy=0;entryX=0;entryY=0.5;entryDx=0;entryDy=0;fontColor=#1A1A1A;" edge="1" parent="1" source="xYO9YziwrIUtsG2uqH6N-8" target="xYO9YziwrIUtsG2uqH6N-9">
          <mxGeometry relative="1" as="geometry" />
        </mxCell>
        <mxCell id="xYO9YziwrIUtsG2uqH6N-8" value="&lt;font color=&quot;#1a1a1a&quot;&gt;VM1 send data to TEE1&lt;/font&gt;" style="rounded=0;whiteSpace=wrap;html=1;fontColor=#FF3021;" vertex="1" parent="1">
          <mxGeometry x="72.5" y="360" width="97.5" height="40" as="geometry" />
        </mxCell>
        <mxCell id="xYO9YziwrIUtsG2uqH6N-13" style="edgeStyle=orthogonalEdgeStyle;rounded=0;orthogonalLoop=1;jettySize=auto;html=1;entryX=0;entryY=0.5;entryDx=0;entryDy=0;fontColor=#1A1A1A;" edge="1" parent="1" source="xYO9YziwrIUtsG2uqH6N-9" target="xYO9YziwrIUtsG2uqH6N-10">
          <mxGeometry relative="1" as="geometry" />
        </mxCell>
        <mxCell id="xYO9YziwrIUtsG2uqH6N-9" value="VM2 register service in TEE2" style="rounded=0;whiteSpace=wrap;html=1;fontColor=#1A1A1A;" vertex="1" parent="1">
          <mxGeometry x="200" y="360" width="100" height="40" as="geometry" />
        </mxCell>
        <mxCell id="xYO9YziwrIUtsG2uqH6N-14" value="" style="edgeStyle=orthogonalEdgeStyle;rounded=0;orthogonalLoop=1;jettySize=auto;html=1;fontColor=#1A1A1A;" edge="1" parent="1" source="xYO9YziwrIUtsG2uqH6N-10" target="xYO9YziwrIUtsG2uqH6N-11">
          <mxGeometry relative="1" as="geometry" />
        </mxCell>
        <mxCell id="xYO9YziwrIUtsG2uqH6N-10" value="&lt;font color=&quot;#ff0000&quot;&gt;TEE2 run the service&lt;/font&gt;" style="rounded=0;whiteSpace=wrap;html=1;fontColor=#1A1A1A;" vertex="1" parent="1">
          <mxGeometry x="330" y="360" width="90" height="40" as="geometry" />
        </mxCell>
        <mxCell id="xYO9YziwrIUtsG2uqH6N-11" value="&lt;font color=&quot;#ff3333&quot;&gt;TEE2 get the data in TEE1&lt;/font&gt;" style="rounded=0;whiteSpace=wrap;html=1;fontColor=#1A1A1A;" vertex="1" parent="1">
          <mxGeometry x="450" y="360" width="90" height="40" as="geometry" />
        </mxCell>
      </root>
    </mxGraphModel>
  </diagram>
</mxfile>
